<svg width="24" height="24" viewBox="0 0 24 24" fill="none" xmlns="http://www.w3.org/2000/svg">
<path d="M4.50301 16.011L12 8.70297L19.497 16.011C19.631 16.1418 19.8108 16.2151 19.998 16.2151C20.1852 16.2151 20.3651 16.1418 20.499 16.011C20.5639 15.9474 20.6154 15.8716 20.6506 15.7879C20.6857 15.7042 20.7039 15.6143 20.7039 15.5235C20.7039 15.4327 20.6857 15.3428 20.6506 15.2591C20.6154 15.1754 20.5639 15.0995 20.499 15.036L12.5235 7.25997C12.3834 7.12345 12.1956 7.04705 12 7.04705C11.8044 7.04705 11.6166 7.12345 11.4765 7.25997L3.50101 15.0345C3.43569 15.0981 3.38378 15.1741 3.34833 15.2581C3.31288 15.3421 3.29462 15.4323 3.29462 15.5235C3.29462 15.6146 3.31288 15.7049 3.34833 15.7889C3.38378 15.8728 3.43569 15.9489 3.50101 16.0125C3.63495 16.1433 3.81477 16.2166 4.00201 16.2166C4.18925 16.2166 4.36906 16.1433 4.50301 16.0125L4.50301 16.011Z" fill="#151317"/>
</svg>
